<svg viewBox="0 0 2000 1000" xmlns="http://www.w3.org/2000/svg" style="background: transparent;">
  <!-- High-detail world map wireframe matching the reference image -->
  <g id="world-countries" fill="none" stroke="#00E5FF" stroke-width="1.5" opacity="0.85" stroke-linecap="round" stroke-linejoin="round">
    <!-- North America -->
    <!-- Canada -->
    <path d="M 140,140 L 170,130 L 210,120 L 260,115 L 310,118 L 360,125 L 410,135 L 460,148 L 510,165 L 550,185 L 580,208 L 600,235 L 610,265 L 608,290 L 595,310 L 575,325 L 550,335 L 520,340 L 485,338 L 450,330 L 415,318 L 380,302 L 345,283 L 310,262 L 280,240 L 255,218 L 235,195 L 220,172 L 210,150 L 205,130 L 200,115 L 190,105 L 175,100 L 155,102 L 140,110 Z M 165,170 L 180,165 L 200,162 L 220,165 L 235,172 L 245,183 L 250,197 L 248,211 L 240,223 L 225,230 L 208,232 L 192,228 L 180,220 L 172,208 L 168,193 L 168,180 Z" />
    
    <!-- United States -->
    <path d="M 200,340 L 235,335 L 275,332 L 315,335 L 355,342 L 395,352 L 435,365 L 472,382 L 505,402 L 535,425 L 560,450 L 578,478 L 588,508 L 590,538 L 585,568 L 572,595 L 552,618 L 525,635 L 495,648 L 462,655 L 428,658 L 393,655 L 358,648 L 325,635 L 295,618 L 270,598 L 250,575 L 235,550 L 225,523 L 220,495 L 218,467 L 220,440 L 228,413 L 240,388 L 257,365 L 278,347 Z M 155,505 L 172,500 L 188,503 L 200,512 L 205,525 L 203,538 L 195,548 L 183,552 L 170,548 L 162,538 L 158,525 L 160,512 Z" />
    
    <!-- Mexico -->
    <path d="M 290,660 L 315,657 L 342,658 L 368,663 L 392,672 L 412,685 L 428,702 L 438,722 L 442,743 L 440,764 L 432,783 L 418,798 L 400,808 L 378,812 L 355,810 L 333,803 L 313,792 L 297,777 L 285,760 L 278,741 L 275,721 L 276,701 L 282,682 Z" />
    
    <!-- Central America -->
    <path d="M 442,820 L 458,818 L 475,822 L 488,832 L 495,845 L 495,860 L 488,873 L 475,882 L 458,885 L 442,882 L 430,873 L 425,860 L 427,845 L 435,832 Z" />
    
    <!-- South America -->
    <path d="M 495,540 L 525,535 L 558,535 L 592,542 L 625,555 L 655,572 L 682,594 L 704,620 L 722,650 L 735,683 L 743,718 L 746,755 L 744,792 L 736,827 L 722,860 L 702,889 L 677,913 L 648,932 L 615,946 L 580,955 L 543,958 L 507,955 L 472,946 L 440,932 L 412,913 L 388,889 L 370,862 L 357,832 L 350,800 L 347,767 L 348,733 L 354,700 L 365,668 L 381,639 L 402,613 L 428,591 L 458,573 L 492,559 Z M 515,880 L 535,877 L 555,882 L 570,893 L 578,908 L 578,925 L 570,940 L 555,950 L 535,953 L 515,950 L 500,940 L 492,925 L 492,908 L 500,893 Z" />
    
    <!-- Caribbean Islands -->
    <path d="M 428,730 L 438,728 L 448,732 L 452,742 L 448,752 L 438,756 L 428,752 L 424,742 Z M 458,745 L 468,743 L 478,747 L 482,757 L 478,767 L 468,771 L 458,767 L 454,757 Z" />
    
    <!-- Europe -->
    <!-- Iceland -->
    <path d="M 890,180 L 908,177 L 925,182 L 938,193 L 945,208 L 945,225 L 938,240 L 925,250 L 908,253 L 890,250 L 877,240 L 872,225 L 874,208 L 882,193 Z" />
    
    <!-- UK & Ireland -->
    <path d="M 960,260 L 975,255 L 990,258 L 1000,268 L 1005,282 L 1003,297 L 995,310 L 982,318 L 967,320 L 952,315 L 942,305 L 937,292 L 938,278 L 945,267 Z M 920,285 L 932,282 L 943,287 L 948,298 L 945,310 L 935,318 L 922,320 L 910,315 L 903,305 L 902,293 L 908,285 Z" />
    
    <!-- Western Europe -->
    <path d="M 975,320 L 995,318 L 1015,322 L 1032,332 L 1042,348 L 1045,367 L 1040,386 L 1028,402 L 1010,412 L 988,415 L 967,410 L 950,400 L 940,385 L 937,368 L 942,350 L 953,335 Z" />
    
    <!-- Scandinavia -->
    <path d="M 1020,200 L 1040,195 L 1062,198 L 1082,208 L 1098,223 L 1108,242 L 1112,263 L 1108,284 L 1098,302 L 1082,315 L 1062,322 L 1040,323 L 1020,318 L 1005,308 L 996,293 L 992,275 L 992,256 L 998,238 L 1008,222 Z" />
    
    <!-- Eastern Europe -->
    <path d="M 1045,315 L 1068,312 L 1092,315 L 1115,323 L 1135,335 L 1150,352 L 1158,372 L 1158,393 L 1150,413 L 1135,428 L 1115,438 L 1092,442 L 1068,438 L 1048,428 L 1035,413 L 1028,395 L 1028,377 L 1033,358 L 1040,340 Z" />
    
    <!-- Mediterranean -->
    <path d="M 1005,415 L 1020,413 L 1035,417 L 1045,427 L 1050,440 L 1047,453 L 1038,463 L 1025,467 L 1010,465 L 998,457 L 993,445 L 995,432 L 1000,422 Z M 1055,430 L 1068,428 L 1080,433 L 1088,443 L 1090,456 L 1085,467 L 1075,473 L 1062,475 L 1050,470 L 1045,460 L 1045,448 L 1050,438 Z" />
    
    <!-- Russia -->
    <path d="M 1160,210 L 1210,205 L 1265,205 L 1320,210 L 1375,220 L 1430,235 L 1482,253 L 1530,275 L 1575,300 L 1615,328 L 1650,358 L 1678,390 L 1698,424 L 1710,460 L 1715,497 L 1712,534 L 1702,570 L 1685,603 L 1662,633 L 1633,660 L 1600,683 L 1563,702 L 1523,717 L 1482,727 L 1440,733 L 1398,735 L 1357,732 L 1318,725 L 1282,713 L 1250,697 L 1222,678 L 1198,655 L 1179,629 L 1165,601 L 1157,571 L 1153,540 L 1153,508 L 1157,477 L 1165,447 L 1178,419 L 1195,393 L 1217,370 L 1243,350 L 1273,333 L 1307,320 L 1343,310 L 1380,303 L 1418,300 L 1457,300 L 1495,303 L 1532,310 L 1567,320 L 1600,333 L 1630,348 Z" />
    
    <!-- Middle East -->
    <path d="M 1100,460 L 1120,457 L 1142,462 L 1162,472 L 1178,487 L 1188,507 L 1192,529 L 1188,551 L 1178,570 L 1162,585 L 1142,593 L 1120,595 L 1098,590 L 1080,580 L 1068,565 L 1062,547 L 1062,527 L 1068,508 L 1080,492 Z" />
    
    <!-- Arabian Peninsula -->
    <path d="M 1118,540 L 1138,537 L 1158,542 L 1175,553 L 1186,569 L 1190,588 L 1186,607 L 1175,623 L 1158,633 L 1138,638 L 1118,635 L 1103,625 L 1095,611 L 1093,594 L 1097,577 L 1107,562 Z" />
    
    <!-- Africa -->
    <path d="M 985,465 L 1010,462 L 1037,465 L 1065,473 L 1092,487 L 1116,506 L 1136,529 L 1151,556 L 1161,586 L 1166,619 L 1166,653 L 1161,688 L 1151,722 L 1136,754 L 1116,783 L 1092,809 L 1065,831 L 1037,848 L 1008,860 L 978,867 L 948,869 L 918,865 L 889,856 L 862,842 L 838,824 L 817,803 L 800,779 L 787,753 L 778,725 L 773,696 L 772,666 L 774,637 L 780,608 L 790,581 L 804,556 L 822,534 L 843,515 L 867,500 L 894,488 L 923,480 L 953,475 Z" />
    
    <!-- Madagascar -->
    <path d="M 1168,765 L 1182,762 L 1195,767 L 1203,778 L 1206,793 L 1203,808 L 1195,820 L 1182,827 L 1168,828 L 1157,823 L 1150,813 L 1148,800 L 1150,787 L 1157,775 Z" />
    
    <!-- Asia -->
    <!-- India -->
    <path d="M 1260,510 L 1285,507 L 1312,510 L 1338,520 L 1360,535 L 1377,555 L 1388,579 L 1393,605 L 1390,632 L 1380,657 L 1363,678 L 1342,693 L 1318,702 L 1292,705 L 1267,702 L 1245,693 L 1227,679 L 1214,661 L 1207,640 L 1205,617 L 1208,594 L 1216,572 L 1230,553 L 1247,537 Z" />
    
    <!-- Southeast Asia -->
    <path d="M 1410,610 L 1430,608 L 1450,613 L 1467,624 L 1478,640 L 1483,659 L 1480,678 L 1470,695 L 1455,707 L 1436,713 L 1416,713 L 1398,707 L 1385,695 L 1378,679 L 1376,661 L 1380,643 L 1390,627 Z M 1485,665 L 1502,663 L 1518,668 L 1530,679 L 1536,694 L 1535,710 L 1528,725 L 1515,735 L 1498,740 L 1481,738 L 1467,731 L 1458,719 L 1454,704 L 1456,688 L 1463,674 L 1474,665 Z" />
    
    <!-- Indonesia & Philippines -->
    <path d="M 1540,695 L 1558,693 L 1575,698 L 1588,709 L 1595,724 L 1595,741 L 1588,756 L 1575,767 L 1558,772 L 1540,770 L 1527,763 L 1520,751 L 1518,737 L 1522,722 L 1530,708 Z M 1605,600 L 1620,598 L 1635,603 L 1645,614 L 1650,628 L 1648,643 L 1640,656 L 1627,663 L 1612,665 L 1597,661 L 1588,651 L 1583,638 L 1585,624 L 1593,611 Z" />
    
    <!-- China -->
    <path d="M 1430,320 L 1475,315 L 1522,318 L 1570,328 L 1615,343 L 1657,363 L 1694,388 L 1725,417 L 1750,450 L 1768,486 L 1778,524 L 1782,563 L 1778,602 L 1766,639 L 1746,673 L 1720,704 L 1688,730 L 1652,752 L 1613,768 L 1572,779 L 1530,785 L 1488,786 L 1447,782 L 1408,773 L 1372,759 L 1340,741 L 1313,719 L 1291,694 L 1275,666 L 1265,636 L 1260,605 L 1260,573 L 1265,542 L 1276,512 L 1293,485 L 1315,461 L 1342,440 L 1373,423 L 1408,410 L 1446,401 L 1486,396 L 1527,395 Z" />
    
    <!-- Mongolia -->
    <path d="M 1480,340 L 1515,338 L 1550,343 L 1580,355 L 1603,372 L 1618,393 L 1625,417 L 1623,441 L 1613,463 L 1595,480 L 1572,492 L 1545,498 L 1517,499 L 1490,494 L 1467,484 L 1450,469 L 1440,450 L 1437,429 L 1441,408 L 1451,389 L 1465,372 Z" />
    
    <!-- Japan -->
    <path d="M 1785,385 L 1803,382 L 1820,387 L 1832,398 L 1838,413 L 1838,430 L 1832,447 L 1820,460 L 1803,467 L 1785,468 L 1770,462 L 1760,451 L 1756,437 L 1758,422 L 1766,408 L 1777,397 Z M 1805,465 L 1820,463 L 1835,468 L 1845,479 L 1850,493 L 1848,508 L 1840,521 L 1827,529 L 1812,532 L 1797,529 L 1787,521 L 1782,508 L 1782,493 L 1787,479 L 1795,469 Z" />
    
    <!-- Korea -->
    <path d="M 1695,375 L 1712,373 L 1728,378 L 1740,390 L 1745,406 L 1743,423 L 1735,438 L 1722,448 L 1707,452 L 1692,449 L 1682,440 L 1677,427 L 1677,412 L 1683,397 L 1691,385 Z" />
    
    <!-- Oceania -->
    <!-- Australia -->
    <path d="M 1660,680 L 1702,675 L 1748,678 L 1794,690 L 1837,708 L 1875,732 L 1906,761 L 1930,794 L 1945,830 L 1952,868 L 1950,906 L 1940,942 L 1922,974 L 1897,1001 L 1866,1023 L 1830,1039 L 1790,1049 L 1747,1053 L 1704,1049 L 1663,1039 L 1625,1023 L 1592,1002 L 1565,977 L 1544,948 L 1530,916 L 1523,882 L 1522,847 L 1527,813 L 1539,781 L 1557,752 L 1581,727 L 1610,707 L 1643,692 Z" />
    
    <!-- New Zealand -->
    <path d="M 1915,940 L 1932,937 L 1948,943 L 1958,955 L 1962,971 L 1958,987 L 1948,1000 L 1932,1007 L 1915,1008 L 1901,1002 L 1893,991 L 1890,977 L 1893,963 L 1902,951 Z M 1905,1020 L 1920,1018 L 1935,1024 L 1945,1036 L 1950,1051 L 1947,1066 L 1938,1078 L 1924,1084 L 1909,1085 L 1897,1079 L 1890,1068 L 1888,1054 L 1892,1040 L 1900,1029 Z" />
    
    <!-- Papua New Guinea & Pacific Islands -->
    <path d="M 1730,720 L 1748,718 L 1765,723 L 1777,734 L 1783,748 L 1782,763 L 1775,777 L 1763,786 L 1747,790 L 1731,787 L 1720,778 L 1715,765 L 1716,751 L 1722,737 Z" />
  </g>
</svg>
